<svg width="253" height="153" viewBox="0 0 253 153" fill="none" xmlns="http://www.w3.org/2000/svg">
<path d="M137.015 0.417449L172.818 51.7241L155.347 51.5809L129.866 12.7988L129.535 12.7961L102.599 51.1627L85.1286 51.0195L122.846 0.301302L137.015 0.417449Z" fill="#15E1D5"/>
<path d="M74.6412 60.005L194.563 84.1017L194.357 95.0045L74.4357 70.9077L74.6412 60.005Z" fill="#15E1D5"/>
<path d="M119.49 152.222L84.2309 98.6375L101.701 98.7807L127.133 140.183L127.464 140.186L154.449 99.2131L171.92 99.3563L134.651 152.343L119.49 152.222Z" fill="#15E1D5"/>
<path d="M17.296 74.416C16.464 72.816 15.472 70.992 14.32 68.944C13.232 66.832 12.08 64.72 10.864 62.608C9.648 60.496 8.464 58.512 7.312 56.656C6.16 54.736 5.136 53.136 4.24 51.856C3.792 51.216 3.312 50.608 2.8 50.032C2.288 49.392 1.808 48.816 1.36 48.304C0.976 47.792 0.656 47.312 0.4 46.864C0.208 46.416 0.208 46.064 0.4 45.808C0.72 45.232 1.296 44.944 2.128 44.944C3.024 44.944 3.952 45.104 4.912 45.424C5.872 45.744 6.832 46.16 7.792 46.672C8.752 47.184 9.488 47.664 10 48.112C10.896 48.944 11.888 50.096 12.976 51.568C14.064 53.04 15.152 54.608 16.24 56.272C17.392 57.936 18.448 59.6 19.408 61.264C20.432 62.864 21.264 64.24 21.904 65.392C22.352 64.56 23.12 63.408 24.208 61.936C25.296 60.4 26.448 58.832 27.664 57.232C28.944 55.568 30.192 53.968 31.408 52.432C32.624 50.896 33.648 49.648 34.48 48.688C35.376 47.664 36.432 46.8 37.648 46.096C38.864 45.328 40.08 44.752 41.296 44.368C42.512 43.984 43.6 43.824 44.56 43.888C45.584 43.888 46.288 44.112 46.672 44.56C46.864 44.816 46.8 45.2 46.48 45.712C46.224 46.16 45.84 46.672 45.328 47.248C44.88 47.76 44.4 48.304 43.888 48.88C43.376 49.392 42.992 49.84 42.736 50.224C41.776 51.568 40.56 53.264 39.088 55.312C37.68 57.36 36.208 59.504 34.672 61.744C33.136 63.984 31.664 66.192 30.256 68.368C28.848 70.544 27.664 72.432 26.704 74.032C26.704 74.864 26.704 76.24 26.704 78.16C26.704 80.016 26.672 82.032 26.608 84.208C26.544 86.384 26.48 88.496 26.416 90.544C26.352 92.592 26.288 94.128 26.224 95.152C26.096 96.304 25.872 97.584 25.552 98.992C25.296 100.336 24.688 101.648 23.728 102.928C23.28 103.504 22.736 104.048 22.096 104.56C21.456 105.072 20.752 105.52 19.984 105.904C19.28 106.224 18.544 106.416 17.776 106.48C17.072 106.544 16.4 106.384 15.76 106C15.44 105.808 15.28 105.488 15.28 105.04C15.28 104.528 15.344 104.016 15.472 103.504C15.664 102.928 15.824 102.384 15.952 101.872C16.144 101.36 16.272 100.976 16.336 100.72C16.784 98.224 17.04 95.792 17.104 93.424C17.232 90.992 17.296 89.232 17.296 88.144V74.416ZM79.7965 79.408C79.7965 78.064 79.6045 76.72 79.2205 75.376C78.8365 73.968 78.2285 72.72 77.3965 71.632C76.5645 70.48 75.4765 69.552 74.1325 68.848C72.7885 68.144 71.1245 67.792 69.1405 67.792C67.5405 67.792 65.9725 67.92 64.4365 68.176C62.9645 68.432 61.6525 68.72 60.5005 69.04C56.0205 70.192 53.5245 70.032 53.0125 68.56C52.7565 67.792 53.0125 66.896 53.7805 65.872C54.5485 64.848 55.7005 63.888 57.2365 62.992C58.8365 62.096 60.7245 61.328 62.9005 60.688C65.1405 60.048 67.5725 59.728 70.1965 59.728C72.8205 59.728 75.2205 60.176 77.3965 61.072C79.6365 61.968 81.5565 63.216 83.1565 64.816C84.7565 66.352 86.0045 68.176 86.9005 70.288C87.7965 72.4 88.2445 74.672 88.2445 77.104V98.032C88.2445 98.992 88.2765 100.24 88.3405 101.776C88.4045 103.312 88.5965 104.688 88.9165 105.904C89.4285 107.824 89.4925 108.976 89.1085 109.36C88.7885 109.616 88.2765 109.712 87.5725 109.648C86.9325 109.648 86.2925 109.52 85.6525 109.264C84.8205 108.944 83.9885 108.272 83.1565 107.248C82.3885 106.288 81.7165 104.976 81.1405 103.312C80.8205 103.696 80.2445 104.208 79.4125 104.848C78.6445 105.424 77.6525 106 76.4365 106.576C75.2205 107.216 73.8445 107.76 72.3085 108.208C70.8365 108.656 69.2685 108.912 67.6045 108.976C64.2765 109.04 61.4605 108.688 59.1565 107.92C56.8525 107.216 54.9645 106.224 53.4925 104.944C52.0845 103.664 51.0285 102.192 50.3245 100.528C49.6845 98.8 49.3325 97.008 49.2685 95.152C49.2045 93.232 49.5245 91.344 50.2285 89.488C50.9325 87.632 52.0525 86 53.5885 84.592C55.1245 83.184 57.1085 82.064 59.5405 81.232C61.9725 80.4 64.8845 80.016 68.2765 80.08C70.1325 80.144 72.1805 80.496 74.4205 81.136C76.6605 81.776 78.4525 82.576 79.7965 83.536V79.408ZM79.8925 88.72C78.1005 88.08 76.1165 87.536 73.9405 87.088C71.8285 86.64 69.6845 86.448 67.5085 86.512C61.1725 86.64 58.0045 89.232 58.0045 94.288C58.0045 96.784 58.7725 98.448 60.3085 99.28C61.9085 100.112 64.2765 100.528 67.4125 100.528C68.4365 100.528 69.5245 100.4 70.6765 100.144C71.8925 99.888 73.0445 99.568 74.1325 99.184C75.2845 98.736 76.3405 98.224 77.3005 97.648C78.3245 97.072 79.1885 96.496 79.8925 95.92V88.72ZM102.723 49.36C102.723 48.656 102.467 48.304 101.955 48.304C101.379 48.304 100.579 48.304 99.5545 48.304C98.5945 48.24 97.7305 48.112 96.9625 47.92C96.1945 47.728 95.5545 47.344 95.0425 46.768C94.5305 46.192 94.2745 45.808 94.2745 45.616C94.2745 45.168 94.6265 44.688 95.3305 44.176C96.0345 43.664 96.6105 43.28 97.0585 43.024C98.5945 42.256 100.355 41.52 102.339 40.816C104.387 40.112 106.083 39.76 107.427 39.76C107.811 39.76 108.195 39.92 108.579 40.24C109.027 40.56 109.411 40.944 109.731 41.392C110.115 41.776 110.403 42.192 110.595 42.64C110.851 43.024 110.979 43.344 110.979 43.6V67.504C112.067 66.224 113.603 65.072 115.587 64.048C117.635 63.024 119.779 62.512 122.019 62.512C124.195 62.512 126.243 62.896 128.163 63.664C130.147 64.368 131.843 65.52 133.251 67.12C134.723 68.72 135.875 70.8 136.707 73.36C137.603 75.92 138.051 79.024 138.051 82.672C138.051 84.464 137.987 86.448 137.859 88.624C137.731 90.8 137.635 93.008 137.571 95.248C137.571 97.488 137.635 99.728 137.763 101.968C137.955 104.144 138.339 106.128 138.915 107.92C139.235 108.752 139.619 109.648 140.067 110.608C140.515 111.632 140.483 112.4 139.971 112.912C139.715 113.104 139.331 113.168 138.819 113.104C138.307 113.104 137.763 113.008 137.187 112.816C136.611 112.688 136.035 112.528 135.459 112.336C134.947 112.144 134.563 111.952 134.307 111.76C133.027 110.928 132.035 109.776 131.331 108.304C130.691 106.832 130.211 105.232 129.891 103.504C129.571 101.776 129.379 99.984 129.315 98.128C129.315 96.272 129.315 94.512 129.315 92.848C129.379 88.88 129.251 85.616 128.931 83.056C128.675 80.496 128.195 78.448 127.491 76.912C126.851 75.312 126.019 74.16 124.995 73.456C123.971 72.688 122.755 72.144 121.347 71.824C119.875 71.504 118.083 71.6 115.971 72.112C113.923 72.56 112.259 73.424 110.979 74.704V90.64C110.979 93.776 110.723 96.496 110.211 98.8C109.763 101.104 109.155 103.024 108.387 104.56C107.683 106.096 106.883 107.216 105.987 107.92C105.155 108.624 104.355 108.912 103.587 108.784C103.139 108.72 102.851 108.08 102.723 106.864C102.595 105.648 102.531 104.176 102.531 102.448C102.531 100.656 102.563 98.8 102.627 96.88C102.691 94.96 102.723 93.232 102.723 91.696V49.36ZM151.852 69.712C151.852 69.328 151.788 69.104 151.66 69.04C151.596 68.912 151.5 68.816 151.372 68.752C150.732 68.56 149.964 68.368 149.068 68.176C148.172 67.92 147.5 67.696 147.052 67.504C146.412 67.184 145.868 66.736 145.42 66.16C144.972 65.52 144.748 64.88 144.748 64.24C144.748 63.792 145.1 63.408 145.804 63.088C146.508 62.704 147.084 62.448 147.532 62.32C149.132 61.808 150.604 61.424 151.948 61.168C153.292 60.912 154.732 60.816 156.268 60.88C157.036 60.88 157.644 61.04 158.092 61.36C158.604 61.68 158.956 62.064 159.148 62.512C159.404 62.896 159.564 63.312 159.628 63.76C159.756 64.144 159.82 64.464 159.82 64.72V94.192C159.82 95.728 159.66 97.424 159.34 99.28C159.02 101.072 158.604 102.768 158.092 104.368C157.644 105.904 157.068 107.184 156.364 108.208C155.724 109.232 155.084 109.744 154.444 109.744C153.868 109.744 153.42 109.136 153.1 107.92C152.78 106.768 152.524 105.36 152.332 103.696C152.14 102.032 152.012 100.336 151.948 98.608C151.884 96.88 151.852 95.44 151.852 94.288V69.712ZM154.924 55.792C154.22 55.92 153.228 55.728 151.948 55.216C150.732 54.64 149.74 53.904 148.972 53.008C148.46 52.432 148.204 51.76 148.204 50.992C148.268 50.16 148.46 49.392 148.78 48.688C149.164 47.92 149.644 47.28 150.22 46.768C150.86 46.256 151.532 46 152.236 46C153.004 46 153.772 46.128 154.54 46.384C155.372 46.576 156.108 46.896 156.748 47.344C157.452 47.728 158.028 48.176 158.476 48.688C158.924 49.2 159.148 49.744 159.148 50.32C159.148 51.408 158.732 52.56 157.9 53.776C157.068 54.992 156.076 55.664 154.924 55.792ZM174.676 126.544C174.932 126.224 175.124 125.936 175.252 125.68C175.444 125.424 175.572 125.232 175.636 125.104C176.276 123.888 177.012 122.384 177.844 120.592C178.676 118.864 179.476 117.104 180.244 115.312C181.012 113.52 181.716 111.792 182.356 110.128C182.996 108.528 183.476 107.216 183.796 106.192C183.604 105.616 183.22 104.656 182.644 103.312C182.068 101.904 181.364 100.304 180.532 98.512C179.7 96.72 178.772 94.8 177.748 92.752C176.788 90.704 175.796 88.688 174.772 86.704C173.748 84.72 172.724 82.864 171.7 81.136C170.74 79.408 169.844 77.968 169.012 76.816C168.756 76.432 168.436 76.048 168.052 75.664C167.732 75.216 167.38 74.768 166.996 74.32C166.676 73.808 166.42 73.328 166.228 72.88C166.036 72.432 166.004 72.016 166.132 71.632C166.26 71.184 166.964 70.96 168.244 70.96C169.524 70.96 170.932 71.12 172.468 71.44C174.004 71.76 175.476 72.24 176.884 72.88C178.292 73.52 179.188 74.224 179.572 74.992C181.556 78.64 183.284 82.384 184.756 86.224C186.228 90.064 187.252 93.52 187.828 96.592C188.724 94.544 189.62 92.272 190.516 89.776C191.412 87.216 192.244 84.688 193.012 82.192C193.78 79.632 194.484 77.2 195.124 74.896C195.764 72.592 196.276 70.672 196.66 69.136C196.532 68.752 196.436 68.08 196.372 67.12C196.308 66.16 196.308 65.168 196.372 64.144C196.5 63.056 196.66 62.064 196.852 61.168C197.108 60.272 197.492 59.728 198.004 59.536C198.58 59.28 199.284 59.408 200.116 59.92C200.948 60.368 201.748 60.976 202.516 61.744C203.348 62.512 204.084 63.344 204.724 64.24C205.364 65.072 205.78 65.712 205.972 66.16C206.612 67.696 206.74 69.136 206.356 70.48C205.972 71.824 205.524 73.232 205.012 74.704C204.436 76.624 203.636 79.056 202.612 82C201.588 84.944 200.404 88.144 199.06 91.6C197.716 94.992 196.276 98.512 194.74 102.16C193.268 105.744 191.764 109.2 190.228 112.528C188.692 115.92 187.156 118.992 185.62 121.744C184.148 124.56 182.804 126.8 181.588 128.464C181.268 128.912 180.692 129.392 179.86 129.904C179.092 130.416 178.228 130.864 177.268 131.248C176.308 131.632 175.348 131.856 174.388 131.92C173.492 132.048 172.756 131.92 172.18 131.536C171.796 131.28 171.732 130.864 171.988 130.288C172.244 129.712 172.628 129.104 173.14 128.464L174.676 126.544ZM242.734 79.408C242.734 78.064 242.542 76.72 242.158 75.376C241.774 73.968 241.166 72.72 240.334 71.632C239.502 70.48 238.414 69.552 237.07 68.848C235.726 68.144 234.062 67.792 232.078 67.792C230.478 67.792 228.91 67.92 227.374 68.176C225.902 68.432 224.59 68.72 223.438 69.04C218.958 70.192 216.462 70.032 215.95 68.56C215.694 67.792 215.95 66.896 216.718 65.872C217.486 64.848 218.638 63.888 220.174 62.992C221.774 62.096 223.662 61.328 225.838 60.688C228.078 60.048 230.51 59.728 233.134 59.728C235.758 59.728 238.158 60.176 240.334 61.072C242.574 61.968 244.494 63.216 246.094 64.816C247.694 66.352 248.942 68.176 249.838 70.288C250.734 72.4 251.182 74.672 251.182 77.104V98.032C251.182 98.992 251.214 100.24 251.278 101.776C251.342 103.312 251.534 104.688 251.854 105.904C252.366 107.824 252.43 108.976 252.046 109.36C251.726 109.616 251.214 109.712 250.51 109.648C249.87 109.648 249.23 109.52 248.59 109.264C247.758 108.944 246.926 108.272 246.094 107.248C245.326 106.288 244.654 104.976 244.078 103.312C243.758 103.696 243.182 104.208 242.35 104.848C241.582 105.424 240.59 106 239.374 106.576C238.158 107.216 236.782 107.76 235.246 108.208C233.774 108.656 232.206 108.912 230.542 108.976C227.214 109.04 224.398 108.688 222.094 107.92C219.79 107.216 217.902 106.224 216.43 104.944C215.022 103.664 213.966 102.192 213.262 100.528C212.622 98.8 212.27 97.008 212.206 95.152C212.142 93.232 212.462 91.344 213.166 89.488C213.87 87.632 214.99 86 216.526 84.592C218.062 83.184 220.046 82.064 222.478 81.232C224.91 80.4 227.822 80.016 231.214 80.08C233.07 80.144 235.118 80.496 237.358 81.136C239.598 81.776 241.39 82.576 242.734 83.536V79.408ZM242.83 88.72C241.038 88.08 239.054 87.536 236.878 87.088C234.766 86.64 232.622 86.448 230.446 86.512C224.11 86.64 220.942 89.232 220.942 94.288C220.942 96.784 221.71 98.448 223.246 99.28C224.846 100.112 227.214 100.528 230.35 100.528C231.374 100.528 232.462 100.4 233.614 100.144C234.83 99.888 235.982 99.568 237.07 99.184C238.222 98.736 239.278 98.224 240.238 97.648C241.262 97.072 242.126 96.496 242.83 95.92V88.72Z" fill="black"/>
</svg>
